<?xml version="1.0" encoding="utf-8"?>
<!-- Generator: Adobe Illustrator 19.0.0, SVG Export Plug-In . SVG Version: 6.00 Build 0)  -->
<svg version="1.1" id="Layer_1" xmlns="http://www.w3.org/2000/svg" xmlns:xlink="http://www.w3.org/1999/xlink" x="0px" y="0px"
	 viewBox="-209 383 192 27" style="enable-background:new -209 383 192 27;" xml:space="preserve">
<style type="text/css">
	.st0{fill:#222222;}
</style>
<g>
	<g>
		<path class="st0" d="M-194.9,396.4l9.1,8.9c2.2-2.3,3.6-5.4,3.6-8.9c0-3.4-1.4-6.5-3.6-8.9L-194.9,396.4L-194.9,396.4z
			 M-195.5,397l-9,8.8l9,3.6l9-3.6L-195.5,397z M-195.9,396l9.3-9.1l-8.5-3.5l-8.5,20.1L-195.9,396z M-208.9,396.4
			c0,3.4,1.4,6.5,3.6,8.8l8.9-21L-208.9,396.4z M-124.3,393.9c-2.4,0-3.2,1.7-3.2,1.7v-1.5h-1.8v10.1h1.8v-6.6
			c0-0.9,0.9-2.2,2.7-2.2c1.8,0,2.7,1,2.7,2.9v5.8h1.8V398C-120.3,395.5-121.8,393.9-124.3,393.9 M-133.9,390.7h-1.8v2
			c0,0.7-0.6,1.3-1.4,1.3h-2l-3.3,7.8l-3.3-7.8h-1.8l4.2,9.9l-1.1,2.6h-2.3v1.5h1.8c1,0,2-0.6,2.4-1.5l4.6-10.9h2.2v6
			c0,1.6,0.9,2.6,2.4,2.6h2.4v-1.5h-3.1v-7.1h3.1v-1.5h-3.1V390.7z M-150.3,401.2c0,1-1.3,1.8-3.1,1.8c-1.5,0-2.4-0.5-2.4-1.6v-0.4
			c0-1,0.9-1.5,3-1.5h2.4C-150.3,399.6-150.3,401.2-150.3,401.2z M-148.5,397.5c0-2.3-1.6-3.7-4.3-3.7c-2.5,0-4.2,1.5-4.5,3.8h1.7
			c0.4-1.8,1.6-2.4,2.7-2.4c1.6,0,2.6,0.9,2.6,2.4v0.7h-2.4c-3.4,0-4.9,1.1-4.9,2.9c0,1.9,1.5,3,3.9,3c1.9,0,3-0.7,3.5-1.8
			c0.1,0.9,0.7,1.6,2,1.6h1.2v-1.5h-1.5C-148.5,402.7-148.5,397.5-148.5,397.5z M-160.4,390h-1.8v11.6c0,1.6,0.9,2.6,2.4,2.6h0.9
			v-1.5h-1.5L-160.4,390L-160.4,390z M-174.3,404.2h1.8V390h-1.8V404.2z M-163.4,390h-2.2l-5.5,5.3c-0.5,0.5-0.6,1.3-0.1,1.9l5.7,7
			h2.2l-6.5-8L-163.4,390L-163.4,390z"/>
	</g>
	<path class="st0" d="M-113.9,404v-14.1h1.4v6.4h8.2v-6.4h1.4V404h-1.4v-6.4h-8.2v6.4C-112.5,404-113.9,404-113.9,404z
		 M-100.1,401.3c0-3.4,4.4-3.5,6.2-3.5h0.6v-0.3c0-1.9-1.1-2.6-2.5-2.6c-1.7,0-2.8,1-2.8,1l-0.6-1c0,0,1.3-1.1,3.6-1.1
		c2.4,0,3.8,1.3,3.8,3.9v6.4h-1.3v-1.1c0-0.5,0-0.8,0-0.8h0c0,0-0.8,2.2-3.4,2.2C-98.4,404.2-100.1,403.3-100.1,401.3z M-98.7,401.2
		c0,0.9,0.7,1.9,2.2,1.9c1.9,0,3.1-2,3.1-3.7v-0.4H-94C-95.6,398.9-98.7,399-98.7,401.2z M-89.6,399c0-3.1,2.3-5.3,5.3-5.3
		c2.5,0,3.7,1.4,3.7,1.4l-0.7,1c0,0-1.1-1.2-2.9-1.2c-2.2,0-3.9,1.6-3.9,4c0,2.4,1.7,4,4,4c2,0,3.2-1.4,3.2-1.4l0.6,1.1
		c0,0-1.4,1.6-3.9,1.6C-87.3,404.2-89.6,402.1-89.6,399z M-77.9,404v-14.1h1.4v7.8h1.6l3-3.8h1.6l-3.5,4.4v0l3.8,5.6h-1.6l-3.4-5
		h-1.6v5H-77.9L-77.9,404z M-68.7,401.3c0-3.4,4.4-3.5,6.2-3.5h0.6v-0.3c0-1.9-1.1-2.6-2.5-2.6c-1.7,0-2.8,1-2.8,1l-0.6-1
		c0,0,1.3-1.1,3.6-1.1c2.4,0,3.8,1.3,3.8,3.9v6.4h-1.3v-1.1c0-0.5,0-0.8,0-0.8h0c0,0-0.8,2.2-3.4,2.2
		C-67,404.2-68.7,403.3-68.7,401.3z M-67.3,401.2c0,0.9,0.7,1.9,2.2,1.9c1.9,0,3.1-2,3.1-3.7v-0.4h-0.6
		C-64.2,398.9-67.3,399-67.3,401.2z M-57.1,400.3v-5.1h-1.3V394h1.3v-2.9h1.3v2.9h2.5v1.1h-2.5v5c0,2.4,1.5,2.7,2.3,2.7
		c0.3,0,0.5,0,0.5,0v1.2c0,0-0.2,0-0.6,0C-54.8,404.1-57.1,403.7-57.1,400.3L-57.1,400.3z M-50.8,404v-14.1h1.4v5.4
		c0,0.5,0,0.8,0,0.8h0c0.4-1,1.7-2.5,4-2.5c2.5,0,3.4,1.4,3.4,3.9v6.4h-1.4v-6c0-1.6-0.2-3-2.2-3c-1.7,0-3.2,1.2-3.7,2.9
		c-0.1,0.4-0.2,0.9-0.2,1.3v4.8C-49.4,404-50.8,404-50.8,404z M-39.7,398.9c0-3,2.4-5.2,5.3-5.2s5.3,2.2,5.3,5.2
		c0,3-2.4,5.3-5.3,5.3S-39.7,402-39.7,398.9z M-38.3,398.9c0,2.3,1.8,4.1,3.9,4.1s3.9-1.8,3.9-4.1c0-2.3-1.8-4-3.9-4
		S-38.3,396.6-38.3,398.9z M-26.5,404v-10.1h1.3v1.5c0,0.4,0,0.8,0,0.8h0c0.4-0.9,1.6-2.5,4-2.5c2.5,0,3.4,1.4,3.4,3.9v6.4h-1.4v-6
		c0-1.6-0.2-3-2.2-3c-1.7,0-3.2,1.2-3.7,2.8c-0.1,0.4-0.2,0.9-0.2,1.4v4.8H-26.5z"/>
</g>
</svg>
